<svg width="648" height="648" viewBox="0 0 648 648" fill="none" xmlns="http://www.w3.org/2000/svg">
<path d="M0 0C213.84 0 427.68 0 648 0C648 213.84 648 427.68 648 648C434.16 648 220.32 648 0 648C0 434.16 0 220.32 0 0ZM18 17C18 219.62 18 422.24 18 631C220.29 631 422.58 631 631 631C631 428.38 631 225.76 631 17C428.71 17 226.42 17 18 17Z" fill="#FEFEFE"/>
<path d="M478.406 222.469C479.127 222.465 479.849 222.461 480.592 222.457C482.115 222.454 483.638 222.462 485.161 222.478C487.492 222.5 489.821 222.479 492.152 222.453C493.633 222.456 495.113 222.461 496.594 222.469C497.291 222.461 497.988 222.453 498.706 222.444C503.481 222.537 503.481 222.537 505.681 224.499C507.579 228.098 507.44 231.559 507.433 235.532C507.448 236.821 507.448 236.821 507.463 238.135C507.494 240.97 507.503 243.805 507.512 246.641C507.529 248.608 507.547 250.575 507.566 252.542C507.614 257.718 507.644 262.893 507.67 268.068C507.699 273.35 507.746 278.632 507.791 283.914C507.877 294.276 507.945 304.638 508 315C508.475 314.52 508.95 314.04 509.44 313.546C510.066 312.916 510.693 312.286 511.338 311.637C511.957 311.013 512.577 310.389 513.215 309.746C515.383 307.626 517.676 305.743 520.063 303.875C525.317 299.653 530.245 295.148 535.141 290.517C538.32 287.518 541.539 284.677 545 282C544.385 281.963 543.77 281.925 543.137 281.887C542.329 281.821 541.52 281.755 540.688 281.687C539.487 281.6 539.487 281.6 538.262 281.512C535.549 280.898 534.606 280.257 533 278C532.567 275.879 532.567 275.879 532.563 273.562C532.543 272.801 532.524 272.039 532.504 271.254C533.228 267.964 534.271 267.005 537 265C540.217 264.405 543.393 264.463 546.656 264.504C547.596 264.502 548.535 264.501 549.503 264.499C551.486 264.501 553.47 264.513 555.454 264.533C558.489 264.562 561.523 264.554 564.559 264.541C566.487 264.547 568.416 264.556 570.344 264.566C571.705 264.562 571.705 264.562 573.094 264.557C579.349 264.651 579.349 264.651 582.573 266.379C584.54 268.613 584.503 270.056 584.438 273C584.436 273.866 584.435 274.732 584.434 275.625C584 278 584 278 582.77 279.824C580.405 281.395 579.056 281.038 576.25 280.812C567.622 281.326 562.506 288.444 556.798 294.238C553.515 297.455 549.9 300.219 546.27 303.035C543.827 305.149 541.941 307.425 540 310C541.035 311.108 541.035 311.108 542.09 312.238C547.545 318.115 552.777 324.089 557.809 330.336C561.391 334.69 565.21 338.827 569 343C575 349.667 575 349.667 575 352C575.759 351.954 576.519 351.907 577.301 351.859C578.295 351.823 579.289 351.787 580.313 351.75C581.299 351.704 582.285 351.657 583.301 351.609C586 352 586 352 587.832 353.797C589.536 357.01 589.383 359.422 589 363C587.754 365.188 587.754 365.188 586 367C583.944 367.494 583.944 367.494 581.56 367.486C580.666 367.492 579.772 367.498 578.851 367.504C577.888 367.49 576.925 367.476 575.934 367.461C574.944 367.46 573.954 367.459 572.934 367.458C570.842 367.452 568.75 367.436 566.658 367.412C563.447 367.375 560.237 367.371 557.026 367.371C554.995 367.361 552.964 367.35 550.934 367.336C549.969 367.334 549.005 367.331 548.011 367.329C547.12 367.316 546.229 367.304 545.31 367.291C544.525 367.283 543.739 367.275 542.929 367.267C541 367 541 367 539 365C537.734 360.359 538.152 357.415 540 353C541 352 541 352 543.504 351.902C545.018 351.92 545.018 351.92 546.563 351.937C547.575 351.947 548.586 351.956 549.629 351.965C550.803 351.982 550.803 351.982 552 352C546.496 345.19 540.888 338.486 535.163 331.861C532.372 328.626 529.646 325.356 527 322C523.053 323.786 520.266 326.256 517.102 329.172C515 331 515 331 512.961 332.266C510.726 333.719 509.454 334.743 508 337C507.111 342.028 506.955 346.904 507 352C508.247 351.913 508.247 351.913 509.52 351.824C510.606 351.779 511.693 351.734 512.813 351.687C514.431 351.6 514.431 351.6 516.082 351.512C519 352 519 352 520.899 354.258C522.56 358.394 521.923 360.668 521 365C518.57 367.431 517.931 367.262 514.598 367.306C513.687 367.322 512.776 367.338 511.837 367.355C510.851 367.36 509.864 367.366 508.848 367.371C507.837 367.38 506.826 367.389 505.784 367.398C503.643 367.413 501.502 367.422 499.361 367.426C496.079 367.437 492.799 367.487 489.518 367.537C487.44 367.547 485.363 367.554 483.285 367.559C482.301 367.578 481.316 367.598 480.302 367.618C477.768 367.601 475.474 367.548 473 367C470.765 364.487 470.077 363.153 469.856 359.832C470.778 354.222 470.778 354.222 473 352C478.28 352 483.56 352 489 352C489 314.71 489 277.42 489 239C484.05 239 479.1 239 474 239C471.525 238.01 471.525 238.01 469 237C467.607 232.819 467.096 228.881 469.053 224.811C471.9 222.164 474.713 222.426 478.406 222.469Z" fill="#FEFEFE"/>
<path d="M80.4516 222.424C82.4941 222.437 84.532 222.403 86.5742 222.365C87.8594 222.367 89.1446 222.369 90.4687 222.371C91.6488 222.37 92.829 222.37 94.0449 222.369C96.9999 223 96.9999 223 98.6576 225.2C100.104 228.216 100.393 230.111 100.432 233.433C100.462 235.024 100.462 235.024 100.492 236.647C100.499 237.781 100.505 238.914 100.512 240.082C100.53 241.251 100.548 242.421 100.566 243.625C100.62 247.354 100.654 251.083 100.687 254.812C100.721 257.343 100.755 259.874 100.791 262.404C100.876 268.603 100.944 274.801 101 281C101.473 280.448 101.946 279.896 102.434 279.328C103.058 278.605 103.683 277.882 104.327 277.138C104.944 276.421 105.562 275.704 106.198 274.966C112.778 267.788 122.184 263.483 131.766 262.687C142.033 262.249 150.132 263.661 158.312 270.187C165.481 276.98 168.627 285.336 169.175 295.123C169.23 298.752 169.225 302.375 169.195 306.004C169.192 307.323 169.19 308.642 169.187 310.001C169.179 313.478 169.16 316.955 169.137 320.432C169.117 323.992 169.108 327.551 169.098 331.111C169.076 338.074 169.042 345.037 169 352C169.904 351.954 170.807 351.907 171.738 351.859C172.918 351.823 174.097 351.787 175.312 351.75C176.484 351.704 177.656 351.657 178.863 351.609C182 352 182 352 183.894 353.797C185.51 357.016 185.38 359.452 185 363C183.754 365.188 183.754 365.188 182 367C179.944 367.494 179.944 367.494 177.56 367.486C176.666 367.492 175.772 367.498 174.85 367.504C173.888 367.49 172.925 367.476 171.934 367.461C170.944 367.46 169.954 367.459 168.934 367.458C166.842 367.452 164.75 367.436 162.657 367.412C159.446 367.375 156.237 367.371 153.025 367.371C150.995 367.361 148.964 367.35 146.934 367.336C145.969 367.334 145.004 367.331 144.011 367.329C143.119 367.316 142.228 367.304 141.31 367.291C140.524 367.283 139.738 367.275 138.929 367.267C137 367 137 367 135 365C133.734 360.359 134.152 357.415 136 353C137 352 137 352 140.16 351.902C141.448 351.914 142.736 351.926 144.062 351.937C145.353 351.947 146.643 351.956 147.973 351.965C149.471 351.982 149.471 351.982 151 352C150.962 344.445 150.902 336.891 150.816 329.337C150.777 325.828 150.744 322.32 150.729 318.811C150.711 314.769 150.661 310.729 150.609 306.687C150.608 305.438 150.607 304.189 150.606 302.902C150.487 295.824 149.906 290.977 146 285C141.668 281.164 137.324 280.357 131.613 280.617C122.731 281.918 114.591 286.421 109.055 293.48C100.591 306.034 100.491 317.958 100.312 332.625C100.279 334.507 100.245 336.388 100.209 338.27C100.125 342.846 100.058 347.423 99.9999 352C101.464 351.913 101.464 351.913 102.957 351.824C104.229 351.779 105.502 351.734 106.812 351.687C108.709 351.6 108.709 351.6 110.644 351.512C114 352 114 352 115.94 354.384C117.58 358.433 116.904 360.757 116 365C113.587 367.413 112.991 367.262 109.69 367.306C108.799 367.322 107.907 367.338 106.989 367.355C106.025 367.36 105.06 367.366 104.066 367.371C102.583 367.385 102.583 367.385 101.07 367.398C98.9758 367.413 96.8818 367.422 94.7878 367.426C91.5784 367.437 88.371 367.487 85.1621 367.537C83.1302 367.547 81.0983 367.554 79.0663 367.559C78.1038 367.578 77.1412 367.598 76.1495 367.618C73.6648 367.601 71.4235 367.548 68.9999 367C66.7828 364.491 66.076 363.141 65.8554 359.832C66.7777 354.222 66.7777 354.222 68.9999 352C73.2899 352 77.5799 352 81.9999 352C81.9999 314.71 81.9999 277.42 81.9999 239C78.3699 239 74.7399 239 70.9999 239C67.8806 237.627 66.5102 237.02 64.9999 234C64.5477 227.895 64.5477 227.895 66.1074 224.809C69.8479 221.234 75.5446 222.377 80.4516 222.424Z" fill="#FEFEFE"/>
<path d="M292 272C300.396 280.414 301.44 290.281 301.442 301.699C301.461 303.49 301.461 303.49 301.482 305.317C301.522 309.107 301.544 312.897 301.563 316.687C301.586 320.489 301.615 324.289 301.654 328.09C301.679 330.449 301.694 332.807 301.698 335.165C301.749 340.482 301.821 345.042 304 350C305.373 350.182 305.373 350.182 306.774 350.367C307.962 350.535 309.151 350.702 310.375 350.875C311.559 351.037 312.742 351.2 313.961 351.367C317 352 317 352 319 354C319.266 356.531 319.266 356.531 319.25 359.5C319.258 360.969 319.258 360.969 319.266 362.469C319 365 319 365 317 367C313.938 367.448 310.841 367.324 307.75 367.312C306.903 367.329 306.056 367.345 305.184 367.361C299.316 367.366 294.865 366.67 290.391 362.5C288.519 360.039 286.716 357.573 285 355C284.562 355.363 284.124 355.727 283.672 356.102C270.233 366.755 255.118 371.444 238 370C225.734 367.978 217.449 364.127 210 354C205.075 345.61 204.959 335.473 207.25 326.23C209.936 318.242 215.322 312.385 222.766 308.59C241.929 300.163 264.409 301.014 284 308C283.77 294.962 283.77 294.962 277.188 284.125C271.473 281.186 265.818 280.611 259.5 280.625C258.718 280.627 257.935 280.628 257.129 280.63C247.334 280.832 238.46 283.485 229.438 287.25C225.797 288.765 222.984 289.854 219 289C216.034 286.355 215.091 284.3 213.938 280.5C214 277 214 277 216.07 274.477C234.43 258.957 273.181 257.172 292 272ZM228.188 326.5C224.64 330.554 224.648 334.26 224.731 339.43C225.151 343.438 226.325 346.014 229 349C234.358 352.698 239.411 353.658 245.813 353.5C246.601 353.488 247.389 353.476 248.201 353.463C258.875 353.102 267.271 348.939 276 343C276.793 342.499 277.586 341.997 278.402 341.48C280.76 339.777 282.383 338.425 284 336C284.647 331.91 284.485 328.101 284 324C268.085 318.289 241.878 314.331 228.188 326.5Z" fill="#FEFEFE"/>
<path d="M422.234 272.609C423.108 273.298 423.108 273.298 424 274C424.182 272.935 424.182 272.935 424.367 271.848C424.535 270.929 424.702 270.009 424.875 269.062C425.037 268.146 425.2 267.229 425.367 266.285C425.576 265.531 425.785 264.777 426 264C428.429 262.785 430.164 262.764 432.875 262.687C433.739 262.65 434.602 262.613 435.492 262.574C438.971 263.165 439.897 264.165 442 267C442.575 269.94 442.513 272.829 442.461 275.816C442.46 276.669 442.459 277.522 442.458 278.401C442.452 280.2 442.436 282 442.411 283.8C442.375 286.556 442.37 289.311 442.371 292.068C442.361 293.818 442.349 295.567 442.336 297.316C442.334 298.141 442.331 298.966 442.329 299.816C442.264 303.71 442.207 305.689 440 309C435.569 310.477 431.728 310.717 427.363 308.906C424.12 306.291 424.126 304.321 423.562 300.25C422.397 294.007 421.213 289.836 416 286C406.598 280.541 395.307 279.392 384.734 281.719C374.191 285.004 368.444 289.386 363 299C357.81 308.955 357.992 319.379 360.902 330.004C364.049 338.594 369.705 345.109 378 349C391.703 353.755 405.76 352.715 418.849 346.432C422.471 344.596 425.978 342.783 429.207 340.309C431.897 338.345 433.764 338.528 437 339C440.719 342.016 441.867 344 442.5 348.75C442.446 351.236 442.282 352.592 440.859 354.648C427.654 366.764 407.375 370.431 390.117 370.277C379.22 369.754 368.779 366.549 360 360C359.295 359.487 358.59 358.974 357.863 358.445C347.654 350.317 341.666 337.807 340 325C339.098 307.764 341.685 292.505 353 278.75C371.18 259.775 401.337 256.969 422.234 272.609Z" fill="#FEFEFE"/>
</svg>
