<?xml version="1.0" encoding="UTF-8"?>
<svg version="1.1" xmlns="http://www.w3.org/2000/svg" width="1563" height="671">
<path d="M0 0 C213.84 0 427.68 0 648 0 C648 213.84 648 427.68 648 648 C434.16 648 220.32 648 0 648 C0 434.16 0 220.32 0 0 Z M18 17 C18 219.62 18 422.24 18 631 C220.29 631 422.58 631 631 631 C631 428.38 631 225.76 631 17 C428.71 17 226.42 17 18 17 Z " fill="#FEFEFE" transform="translate(0,10)"/>
<path d="M0 0 C13.53 0 27.06 0 41 0 C41 64.02 41 128.04 41 194 C27.47 194 13.94 194 0 194 C-0.33 190.7 -0.66 187.4 -1 184 C-1.556875 184.45890625 -2.11375 184.9178125 -2.6875 185.390625 C-15.51719158 195.70639053 -28.44372818 199.26159483 -45 198 C-60.61005947 195.74754175 -73.07300418 188.63599465 -82.8125 176.1875 C-93.70146143 160.86229503 -97.16936203 143.31721807 -94.70703125 124.79638672 C-91.86935315 108.29284755 -83.57604068 94.12247837 -70.0625 84.125 C-65.28367325 80.98103503 -60.43552542 78.75595707 -55 77 C-53.99453125 76.66162109 -53.99453125 76.66162109 -52.96875 76.31640625 C-39.12621578 72.45646882 -22.49562077 74.33109042 -9.9375 81 C-6.7466195 82.84255355 -3.9664575 84.77515687 -1 87 C-0.67 58.29 -0.34 29.58 0 0 Z M-46.52734375 118.88671875 C-51.05395972 125.3824727 -53.16096158 133.15301875 -52 141 C-50.49462905 147.50883412 -48.27910313 153.66795003 -42.66015625 157.6640625 C-34.38299706 162.79322723 -27.06410691 164.53522441 -17.33984375 162.421875 C-10.47127902 160.08635067 -5.94383141 156.05288275 -2 150 C1.7203869 141.78257978 1.87212605 134.02986767 -0.89453125 125.49609375 C-3.9628206 118.56804819 -9.27877971 114.17038693 -16 111 C-26.96879863 107.63896025 -38.78184159 110.33553788 -46.52734375 118.88671875 Z " fill="#FEFEFE" transform="translate(1467,198)"/>
<path d="M0 0 C3.125 2.3125 3.125 2.3125 5 4 C5.33 1.03 5.66 -1.94 6 -5 C19.53 -5 33.06 -5 47 -5 C47 33.28 47 71.56 47 111 C33.8 111 20.6 111 7 111 C6.67 107.37 6.34 103.74 6 100 C4.9275 101.03125 3.855 102.0625 2.75 103.125 C-9.15880003 113.49785939 -22.63626513 116.02095559 -38 115 C-54.27381553 113.03067139 -66.77782804 105.565564 -77 93 C-87.68332036 78.26704557 -91.01109326 60.13680259 -88.46875 42.265625 C-85.03169174 25.15505236 -77.10037603 10.10673994 -62.23046875 0.14453125 C-42.99581744 -10.75062089 -19.20867107 -11.63945496 0 0 Z M-41 37 C-45.66186944 43.354652 -46.40028694 50.71961914 -45.81640625 58.421875 C-44.62176606 65.56508439 -40.70928439 70.36201256 -35.625 75.3125 C-28.74207974 79.73723445 -22.14903178 80.99876713 -14 80 C-6.86165398 78.25183363 -1.32809601 74.99274833 3 69 C7.32675446 61.47632608 8.42319868 53.76016509 6.33984375 45.328125 C3.63282027 37.59377219 -0.91504953 32.34364726 -8.1875 28.5625 C-20.53287494 23.67491129 -32.39131013 27.51326194 -41 37 Z " fill="#FEFEFE" transform="translate(1159,281)"/>
<path d="M0 0 C2.36039888 2.10607981 4.12410369 4.17568768 5.9453125 6.7578125 C6.51507812 7.54542969 7.08484375 8.33304687 7.671875 9.14453125 C11.46378839 15.87472824 12.76788894 22.329909 12.66088867 29.98657227 C12.66154579 31.24675423 12.66154579 31.24675423 12.66221619 32.53239441 C12.66014642 35.27574909 12.63690217 38.01847245 12.61328125 40.76171875 C12.60767883 42.67699347 12.60341179 44.59227252 12.60041809 46.5075531 C12.58902017 51.52336715 12.55959693 56.53891632 12.52630615 61.55462646 C12.490069 67.58613869 12.47642004 73.61773998 12.45894623 79.64933014 C12.42995624 88.78984123 12.37243385 97.92977231 12.3203125 107.0703125 C-0.8796875 107.0703125 -14.0796875 107.0703125 -27.6796875 107.0703125 C-27.73576172 99.86380859 -27.73576172 99.86380859 -27.79296875 92.51171875 C-27.82327296 89.45374134 -27.85443672 86.3958204 -27.88867188 83.33789062 C-27.94283613 78.49262465 -27.99395172 73.64747039 -28.02612305 68.80200195 C-28.05228364 64.89199106 -28.09277416 60.98235898 -28.14287376 57.07258415 C-28.15945681 55.58683958 -28.17102409 54.10102962 -28.17730141 52.61520576 C-28.21660028 38.89157446 -28.21660028 38.89157446 -33.9296875 26.6953125 C-38.12584803 22.68988654 -42.24057049 20.95578242 -47.9921875 20.5703125 C-54.64241378 20.82040648 -61.08240895 23.94508511 -65.6171875 28.8203125 C-71.12551821 37.50010635 -71.14784847 46.38992669 -71.19140625 56.38671875 C-71.20828066 57.85360693 -71.22643455 59.3204809 -71.24580383 60.78733826 C-71.29301085 64.61930903 -71.3230085 68.45122216 -71.34924316 72.28338623 C-71.38447876 76.89673234 -71.44140684 81.50985715 -71.49463654 86.12302399 C-71.57280642 93.1054241 -71.6236708 100.08754143 -71.6796875 107.0703125 C-84.8796875 107.0703125 -98.0796875 107.0703125 -111.6796875 107.0703125 C-111.6796875 68.7903125 -111.6796875 30.5103125 -111.6796875 -8.9296875 C-98.4796875 -8.9296875 -85.2796875 -8.9296875 -71.6796875 -8.9296875 C-71.1846875 -3.4846875 -71.1846875 -3.4846875 -70.6796875 2.0703125 C-70.08542969 1.55082031 -69.49117187 1.03132813 -68.87890625 0.49609375 C-48.32424074 -16.79795608 -21.50933205 -15.48922745 0 0 Z " fill="#FEFEFE" transform="translate(1343.6796875,284.9296875)"/>
<path d="M0 0 C11.16622 9.21355334 17.29344269 22.98585796 19.23828125 37.0859375 C19.23828125 42.6959375 19.23828125 48.3059375 19.23828125 54.0859375 C-8.15171875 54.4159375 -35.54171875 54.7459375 -63.76171875 55.0859375 C-61.62773364 65.30019301 -61.62773364 65.30019301 -54.88671875 72.3359375 C-46.69860781 76.92127963 -37.09428658 77.7406339 -27.99609375 75.36328125 C-23.22015472 73.35706196 -19.62852006 70.48117767 -15.76171875 67.0859375 C-15.10171875 67.0859375 -14.44171875 67.0859375 -13.76171875 67.0859375 C-13.26671875 65.6009375 -13.26671875 65.6009375 -12.76171875 64.0859375 C7.65179305 73.59255662 7.65179305 73.59255662 17.23828125 79.0859375 C14.14825402 88.6178859 4.59436155 96.71743761 -3.8203125 101.625 C-22.11627301 110.71223669 -43.38581104 113.15720728 -63.04296875 107.33984375 C-79.77075234 101.69948815 -92.66023518 90.86468659 -101.07421875 75.3359375 C-108.17117856 60.23314293 -108.54548522 43.92310376 -103.76171875 28.0859375 C-97.25857293 11.20277047 -84.61557625 -0.98517067 -68.3203125 -8.4375 C-45.81698223 -17.77477645 -19.77061386 -13.70240565 0 0 Z M-59.76171875 21.0859375 C-62.03470938 24.84812889 -62.76171875 26.63726485 -62.76171875 31.0859375 C-48.90171875 31.0859375 -35.04171875 31.0859375 -20.76171875 31.0859375 C-22.14231999 24.18293132 -24.95083018 20.05434921 -30.76171875 16.0859375 C-40.73835875 11.3440592 -51.94046446 13.48194027 -59.76171875 21.0859375 Z " fill="#FEFEFE" transform="translate(974.76171875,285.9140625)"/>
<path d="M0 0 C14.52 0 29.04 0 44 0 C44 61.38 44 122.76 44 186 C29.48 186 14.96 186 0 186 C0 124.62 0 63.24 0 0 Z " fill="#FFFFFF" transform="translate(695,206)"/>
<path d="M0 0 C13.2 0 26.4 0 40 0 C40 64.02 40 128.04 40 194 C26.8 194 13.6 194 0 194 C0 129.98 0 65.96 0 0 Z " fill="#FEFEFE" transform="translate(1012,198)"/>
<path d="M0 0 C0.72110962 -0.0038269 1.44221924 -0.00765381 2.18518066 -0.01159668 C3.70826617 -0.01431603 5.23139836 -0.00695293 6.75439453 0.00976562 C9.08601981 0.03117901 11.41456432 0.00996916 13.74609375 -0.015625 C15.2265693 -0.01298172 16.70704294 -0.00785674 18.1875 0 C18.8844397 -0.00809692 19.58137939 -0.01619385 20.29943848 -0.02453613 C25.0743767 0.06797737 25.0743767 0.06797737 27.27436829 2.03033447 C29.17279994 5.62885123 29.03317612 9.09000065 29.02612305 13.06347656 C29.04141052 14.35182404 29.04141052 14.35182404 29.05700684 15.66619873 C29.08716985 18.50149022 29.09640782 21.33644405 29.10546875 24.171875 C29.12231298 26.13915126 29.14046288 28.10641675 29.15986633 30.07366943 C29.20740018 35.2488671 29.2371877 40.42402107 29.26330566 45.59936523 C29.29309406 50.88143546 29.33963031 56.16335506 29.38476562 61.4453125 C29.47083728 71.80721293 29.53816545 82.16914433 29.59375 92.53125 C30.06892563 92.05140656 30.54410126 91.57156311 31.03367615 91.07717896 C31.65992386 90.44730072 32.28617157 89.81742249 32.93139648 89.16845703 C33.55094711 88.54423859 34.17049774 87.92002014 34.80882263 87.27688599 C36.97633051 85.15709118 39.26973241 83.27461717 41.65625 81.40625 C46.91045987 77.18398729 51.83883297 72.67947063 56.73461914 68.04833984 C59.91331473 65.04957042 63.1322391 62.20841105 66.59375 59.53125 C65.97886719 59.49386719 65.36398437 59.45648438 64.73046875 59.41796875 C63.92222656 59.35222656 63.11398437 59.28648437 62.28125 59.21875 C61.08048828 59.13173828 61.08048828 59.13173828 59.85546875 59.04296875 C57.14300105 58.42926708 56.20010582 57.7882816 54.59375 55.53125 C54.16015625 53.41015625 54.16015625 53.41015625 54.15625 51.09375 C54.13691406 50.33191406 54.11757813 49.57007813 54.09765625 48.78515625 C54.82177713 45.49525272 55.86495074 44.53621952 58.59375 42.53125 C61.81027001 41.93646275 64.98697474 41.99475775 68.25 42.03515625 C69.18928345 42.03370102 70.12856689 42.03224579 71.09631348 42.03074646 C73.08002833 42.03240471 75.06375615 42.04395765 77.04736328 42.06469727 C80.08291296 42.09364665 83.11671547 42.08530569 86.15234375 42.07226562 C88.08073765 42.07850337 90.00912604 42.08689459 91.9375 42.09765625 C93.29856873 42.09325279 93.29856873 42.09325279 94.68713379 42.08876038 C100.9427506 42.18236572 100.9427506 42.18236572 104.16625977 43.90991211 C106.13389361 46.14474302 106.09695673 47.58758833 106.03125 50.53125 C106.02996094 51.3975 106.02867187 52.26375 106.02734375 53.15625 C105.59375 55.53125 105.59375 55.53125 104.36328125 57.35546875 C101.9988784 58.92651788 100.64986694 58.56908969 97.84375 58.34375 C89.21572246 58.85732307 84.09969653 65.97497998 78.39208984 71.76904297 C75.10850414 74.98665383 71.49349249 77.75034377 67.86328125 80.56640625 C65.4210495 82.68076524 63.53489759 84.95644043 61.59375 87.53125 C62.62822266 88.63919922 62.62822266 88.63919922 63.68359375 89.76953125 C69.13831468 95.64609955 74.37026716 101.61985091 79.40234375 107.8671875 C82.98430077 112.22172348 86.80391637 116.35817477 90.59375 120.53125 C96.59375 127.19791667 96.59375 127.19791667 96.59375 129.53125 C97.35300781 129.48484375 98.11226562 129.4384375 98.89453125 129.390625 C99.88839844 129.35453125 100.88226562 129.3184375 101.90625 129.28125 C102.89238281 129.23484375 103.87851562 129.1884375 104.89453125 129.140625 C107.59375 129.53125 107.59375 129.53125 109.42578125 131.328125 C111.12928831 134.54142929 110.97709924 136.95332375 110.59375 140.53125 C109.34779358 142.71963501 109.34779358 142.71963501 107.59375 144.53125 C105.53807068 145.02572632 105.53807068 145.02572632 103.15405273 145.01708984 C102.25980087 145.0232431 101.36554901 145.02939636 100.44419861 145.03573608 C99.48163651 145.02136505 98.5190744 145.00699402 97.52734375 144.9921875 C96.53750992 144.99127106 95.54767609 144.99035461 94.52784729 144.9894104 C92.43558964 144.98336809 90.3433409 144.9676033 88.2512207 144.94287109 C85.04020501 144.90635185 81.83034231 144.90185172 78.61914062 144.90234375 C76.58853165 144.8925134 74.55793052 144.88085675 72.52734375 144.8671875 C71.56275742 144.86496185 70.59817108 144.86273621 69.60435486 144.86044312 C68.71325516 144.84768341 67.82215546 144.83492371 66.90405273 144.82177734 C66.11812241 144.81415375 65.33219208 144.80653015 64.52244568 144.79867554 C62.59375 144.53125 62.59375 144.53125 60.59375 142.53125 C59.32803054 137.89027863 59.74577006 134.94586874 61.59375 130.53125 C62.59375 129.53125 62.59375 129.53125 65.09765625 129.43359375 C66.61166016 129.45099609 66.61166016 129.45099609 68.15625 129.46875 C69.16816406 129.47777344 70.18007813 129.48679687 71.22265625 129.49609375 C72.39634766 129.51349609 72.39634766 129.51349609 73.59375 129.53125 C68.08993256 122.72097084 62.48151674 116.01709681 56.75683594 109.39208984 C53.96586723 106.15706107 51.2397253 102.8874277 48.59375 99.53125 C44.64620218 101.31683704 41.85975969 103.78756691 38.6953125 106.703125 C36.59375 108.53125 36.59375 108.53125 34.5546875 109.796875 C32.31990575 111.24994297 31.0478912 112.27394941 29.59375 114.53125 C28.70463879 119.55896221 28.54836344 124.43498749 28.59375 129.53125 C29.84091797 129.44423828 29.84091797 129.44423828 31.11328125 129.35546875 C32.19996094 129.31035156 33.28664063 129.26523437 34.40625 129.21875 C36.02466797 129.13173828 36.02466797 129.13173828 37.67578125 129.04296875 C40.59375 129.53125 40.59375 129.53125 42.4921875 131.7890625 C44.15393519 135.92575356 43.51692265 138.19943986 42.59375 142.53125 C40.16319867 144.96180133 39.5244245 144.79352521 36.19165039 144.83764648 C35.28052994 144.85363388 34.36940948 144.86962128 33.43067932 144.88609314 C32.44421921 144.89145584 31.45775909 144.89681854 30.44140625 144.90234375 C29.4303331 144.91137222 28.41925995 144.9204007 27.37754822 144.92970276 C25.23651095 144.94422761 23.09542906 144.95309752 20.9543457 144.95678711 C17.67258255 144.96869076 14.3926945 145.01786166 11.11132812 145.06835938 C9.03386337 145.0778222 6.95638704 145.0850579 4.87890625 145.08984375 C3.89447037 145.10937607 2.91003448 145.12890839 1.89576721 145.14903259 C-0.63794089 145.13218949 -2.93258639 145.07970483 -5.40625 144.53125 C-7.64121463 142.01806552 -8.32940917 140.68386244 -8.55078125 137.36328125 C-7.62847222 131.75347222 -7.62847222 131.75347222 -5.40625 129.53125 C-0.12625 129.53125 5.15375 129.53125 10.59375 129.53125 C10.59375 92.24125 10.59375 54.95125 10.59375 16.53125 C5.64375 16.53125 0.69375 16.53125 -4.40625 16.53125 C-6.88125 15.54125 -6.88125 15.54125 -9.40625 14.53125 C-10.7997728 10.3506816 -11.31075004 6.41240871 -9.35351562 2.34179688 C-6.50677905 -0.30506852 -3.69324821 -0.04290751 0 0 Z " fill="#FEFEFE" transform="translate(478.40625,232.46875)"/>
<path d="M0 0 C-1.71461062 6.01635562 -4.60371276 11.39184856 -7.4375 16.9375 C-10.46991834 22.89474759 -13.46166496 28.81334613 -16 35 C-16.66 34.731875 -17.32 34.46375 -18 34.1875 C-18.99 33.795625 -19.98 33.40375 -21 33 C-22.093125 32.46375 -23.18625 31.9275 -24.3125 31.375 C-31.25117288 28.81099516 -40.58127662 28.58600852 -47.63671875 30.84375 C-54.57764725 34.75711159 -57.8360555 41.6077249 -60 49 C-60.3219599 52.14867866 -60.3219599 52.14867866 -60.31884766 55.46435547 C-60.33871735 56.72520966 -60.35858704 57.98606384 -60.37905884 59.28512573 C-60.39093243 60.64581121 -60.40259545 62.00649854 -60.4140625 63.3671875 C-60.43279034 64.77109902 -60.45236495 66.17499947 -60.4727478 67.57888794 C-60.5239046 71.25799005 -60.5636178 74.93712858 -60.60089111 78.61639404 C-60.64103446 82.37716526 -60.69197483 86.13778947 -60.7421875 89.8984375 C-60.83976539 97.26556811 -60.91941228 104.63258556 -61 112 C-74.53 112 -88.06 112 -102 112 C-102 73.72 -102 35.44 -102 -4 C-88.47 -4 -74.94 -4 -61 -4 C-60.505 2.93 -60.505 2.93 -60 10 C-58.88625 8.80375 -57.7725 7.6075 -56.625 6.375 C-41.19989486 -8.96863452 -18.61019363 -11.91735335 0 0 Z " fill="#FEFEFE" transform="translate(866,280)"/>
<path d="M0 0 C2.04250717 0.01387639 4.0804382 -0.02020443 6.12255859 -0.05834961 C7.40775391 -0.05641602 8.69294922 -0.05448242 10.01708984 -0.05249023 C11.19722656 -0.05321533 12.37736328 -0.05394043 13.59326172 -0.0546875 C16.54833984 0.57641602 16.54833984 0.57641602 18.20600891 2.77630615 C19.65201318 5.79267918 19.94107426 7.68755999 19.98071289 11.00927734 C20.01040413 12.60036064 20.01040413 12.60036064 20.04069519 14.22358704 C20.04708511 15.35709091 20.05347504 16.49059479 20.06005859 17.65844727 C20.0780098 18.82776291 20.095961 19.99707855 20.11445618 21.201828 C20.16857042 24.93082084 20.20245952 28.65968556 20.23583984 32.38891602 C20.26901181 34.9195328 20.30350135 37.45013268 20.33935547 39.98071289 C20.42429774 46.17916573 20.49264313 52.37763513 20.54833984 58.57641602 C21.02147614 58.02452103 21.49461243 57.47262604 21.98208618 56.90400696 C22.60674774 56.18142197 23.2314093 55.45883698 23.875 54.71435547 C24.49251129 53.99746048 25.11002258 53.28056549 25.74624634 52.54194641 C32.32683872 45.36454174 41.73243098 41.05906405 51.31396484 40.26391602 C61.58171238 39.82579949 69.6802773 41.23767874 77.86083984 47.76391602 C85.02953062 54.5560695 88.17533288 62.91268462 88.72317505 72.6998291 C88.77879909 76.32829781 88.77324082 79.95154795 88.74365234 83.58032227 C88.74082245 84.89935043 88.73799255 86.2183786 88.7350769 87.57737732 C88.72750458 91.05437037 88.70791261 94.53119167 88.68566895 98.00811768 C88.66507114 101.56796954 88.65604564 105.12784964 88.64599609 108.68774414 C88.62465945 115.65070454 88.59060262 122.61355199 88.54833984 129.57641602 C89.45197266 129.53000977 90.35560547 129.48360352 91.28662109 129.43579102 C92.46611328 129.39969727 93.64560547 129.36360352 94.86083984 129.32641602 C96.03259766 129.28000977 97.20435547 129.23360352 98.41162109 129.18579102 C101.54833984 129.57641602 101.54833984 129.57641602 103.44287109 131.37329102 C105.05827285 134.59267826 104.92844136 137.02880189 104.54833984 140.57641602 C103.30238342 142.76480103 103.30238342 142.76480103 101.54833984 144.57641602 C99.49266052 145.07089233 99.49266052 145.07089233 97.10864258 145.06225586 C96.21439072 145.06840912 95.32013885 145.07456238 94.39878845 145.0809021 C93.43622635 145.06653107 92.47366425 145.05216003 91.48193359 145.03735352 C90.49209976 145.03643707 89.50226593 145.03552063 88.48243713 145.03457642 C86.39017948 145.02853411 84.29793074 145.01276932 82.20581055 144.98803711 C78.99479486 144.95151786 75.78493215 144.94701774 72.57373047 144.94750977 C70.54312149 144.93767941 68.51252036 144.92602277 66.48193359 144.91235352 C65.51734726 144.91012787 64.55276093 144.90790222 63.5589447 144.90560913 C62.667845 144.89284943 61.7767453 144.88008972 60.85864258 144.86694336 C60.07271225 144.85931976 59.28678192 144.85169617 58.47703552 144.84384155 C56.54833984 144.57641602 56.54833984 144.57641602 54.54833984 142.57641602 C53.28262038 137.93544465 53.7003599 134.99103476 55.54833984 130.57641602 C56.54833984 129.57641602 56.54833984 129.57641602 59.70849609 129.47875977 C60.99626953 129.49036133 62.28404297 129.50196289 63.61083984 129.51391602 C64.90119141 129.52293945 66.19154297 129.53196289 67.52099609 129.54125977 C69.01953125 129.55866211 69.01953125 129.55866211 70.54833984 129.57641602 C70.5101611 122.02166452 70.45062374 114.46733105 70.3644371 106.91297913 C70.32506668 103.40445185 70.29282777 99.89617162 70.27734375 96.38745117 C70.2591864 92.34587044 70.20919032 88.30521078 70.15771484 84.26391602 C70.15648621 83.01465332 70.15525757 81.76539063 70.1539917 80.47827148 C70.03577666 73.40034219 69.4544607 68.55318763 65.54833984 62.57641602 C61.21598698 58.74006268 56.87196975 57.93364834 51.16162109 58.19360352 C42.27966717 59.49469692 34.13908084 63.99786073 28.60302734 71.05688477 C20.13936954 83.6107203 20.03983206 95.53435604 19.86083984 110.20141602 C19.82761725 112.08294952 19.79312313 113.96446102 19.75732422 115.84594727 C19.6729861 120.42264789 19.60591158 124.99930363 19.54833984 129.57641602 C21.01207031 129.4894043 21.01207031 129.4894043 22.50537109 129.40063477 C23.77767578 129.35551758 25.04998047 129.31040039 26.36083984 129.26391602 C28.25769531 129.1769043 28.25769531 129.1769043 30.19287109 129.08813477 C33.54833984 129.57641602 33.54833984 129.57641602 35.48852539 131.96044922 C37.12881803 136.00922499 36.45268758 138.33293817 35.54833984 142.57641602 C33.13539518 144.98936068 32.53894098 144.83812538 29.23803711 144.8828125 C28.34693741 144.8987999 27.45583771 144.91478729 26.53773499 144.93125916 C25.57314865 144.93662186 24.60856232 144.94198456 23.61474609 144.94750977 C22.13143044 144.96105247 22.13143044 144.96105247 20.6181488 144.97486877 C18.52419066 144.98939302 16.43018691 144.99826339 14.33618164 145.00195312 C11.12682975 145.01385671 7.91939538 145.06302766 4.71044922 145.11352539 C2.67855759 145.12298825 0.64665412 145.13022394 -1.38525391 145.13500977 C-2.34781601 145.15454208 -3.31037811 145.1740744 -4.30210876 145.19419861 C-6.78680098 145.17731155 -9.02805355 145.12419839 -11.45166016 144.57641602 C-13.66880177 142.06719587 -14.37558053 140.71761034 -14.59619141 137.40844727 C-13.67388238 131.79863824 -13.67388238 131.79863824 -11.45166016 129.57641602 C-7.16166016 129.57641602 -2.87166016 129.57641602 1.54833984 129.57641602 C1.54833984 92.28641602 1.54833984 54.99641602 1.54833984 16.57641602 C-2.08166016 16.57641602 -5.71166016 16.57641602 -9.45166016 16.57641602 C-12.57103985 15.20388895 -13.94143165 14.59687302 -15.45166016 11.57641602 C-15.90389699 5.47121882 -15.90389699 5.47121882 -14.34423828 2.38525391 C-10.60373654 -1.18974318 -4.90699789 -0.04671642 0 0 Z " fill="#FEFEFE" transform="translate(80.45166015625,232.423583984375)"/>
<path d="M0 0 C8.39600397 8.4137545 9.44024398 18.28087109 9.44140625 29.69921875 C9.46121803 31.4899456 9.46121803 31.4899456 9.48143005 33.31684875 C9.52210969 37.10709011 9.54394201 40.89709057 9.5625 44.6875 C9.58632725 48.48854798 9.61448088 52.28937055 9.65428162 56.09028625 C9.67854124 58.44859454 9.69347884 60.80702211 9.69789124 63.16545105 C9.74842869 68.48202633 9.82092993 73.04243929 12 78 C13.37285156 78.18175781 13.37285156 78.18175781 14.7734375 78.3671875 C15.96195312 78.53476562 17.15046875 78.70234375 18.375 78.875 C19.55835938 79.03742188 20.74171875 79.19984375 21.9609375 79.3671875 C25 80 25 80 27 82 C27.265625 84.53125 27.265625 84.53125 27.25 87.5 C27.25773437 88.96953125 27.25773437 88.96953125 27.265625 90.46875 C27 93 27 93 25 95 C21.93799549 95.44830233 18.84106599 95.32405107 15.75 95.3125 C14.90308594 95.32861328 14.05617188 95.34472656 13.18359375 95.36132812 C7.31620937 95.36589063 2.86448626 94.66981244 -1.609375 90.5 C-3.480765 88.03899398 -5.2843957 85.57340646 -7 83 C-7.43828125 83.36351562 -7.8765625 83.72703125 -8.328125 84.1015625 C-21.76734309 94.75460123 -36.88246291 99.44435319 -54 98 C-66.26581658 95.97767899 -74.55069884 92.12693015 -82 82 C-86.92511284 73.61032503 -87.04070279 63.47281818 -84.75 54.23046875 C-82.06396235 46.2423047 -76.67832963 40.38541949 -69.234375 36.58984375 C-50.07107893 28.16290714 -27.59154469 29.01386779 -8 36 C-8.23023362 22.96196763 -8.23023362 22.96196763 -14.8125 12.125 C-20.5270924 9.18606677 -26.18232806 8.61126593 -32.5 8.625 C-33.28246094 8.62661133 -34.06492187 8.62822266 -34.87109375 8.62988281 C-44.66641642 8.83229831 -53.54022593 11.48511663 -62.5625 15.25 C-66.20281879 16.76529024 -69.01635401 17.85363843 -73 17 C-75.9658045 14.35482301 -76.90889671 12.30010494 -78.0625 8.5 C-78 5 -78 5 -75.9296875 2.4765625 C-57.57060666 -13.0429805 -18.81953257 -14.82751051 0 0 Z M-63.8125 54.5 C-67.3597905 58.55404628 -67.35243172 62.259713 -67.26953125 67.4296875 C-66.8492415 71.43766806 -65.67487304 74.01422356 -63 77 C-57.64224732 80.6981618 -52.58907114 81.65852297 -46.1875 81.5 C-45.39923828 81.48791504 -44.61097656 81.47583008 -43.79882812 81.46337891 C-33.12467629 81.10217401 -24.72878705 76.93902645 -16 71 C-15.20722656 70.49855469 -14.41445313 69.99710938 -13.59765625 69.48046875 C-11.24005227 67.77752458 -9.61672661 66.42508992 -8 64 C-7.35343344 59.91020995 -7.51515427 56.10098677 -8 52 C-23.91553453 46.28868378 -50.12190151 42.33057912 -63.8125 54.5 Z " fill="#FEFEFE" transform="translate(292,282)"/>
<path d="M0 0 C0.87398437 0.68835938 0.87398437 0.68835938 1.765625 1.390625 C1.94738281 0.32521484 1.94738281 0.32521484 2.1328125 -0.76171875 C2.30039062 -1.68082031 2.46796875 -2.59992188 2.640625 -3.546875 C2.80304688 -4.46339844 2.96546875 -5.37992187 3.1328125 -6.32421875 C3.34164062 -7.07832031 3.55046875 -7.83242188 3.765625 -8.609375 C6.19523679 -9.8241809 7.92946616 -9.84544767 10.640625 -9.921875 C11.50429688 -9.95925781 12.36796875 -9.99664062 13.2578125 -10.03515625 C16.73632133 -9.4445683 17.66313624 -8.44449938 19.765625 -5.609375 C20.3404082 -2.66900348 20.27872788 0.21954871 20.2265625 3.20703125 C20.22564606 4.05990219 20.22472961 4.91277313 20.2237854 5.79148865 C20.21775293 7.59111103 20.20201745 9.39072354 20.17724609 11.19018555 C20.14070847 13.94682735 20.13622702 16.70212556 20.13671875 19.45898438 C20.12688835 21.20834496 20.11523168 22.95769644 20.1015625 24.70703125 C20.09933685 25.53207657 20.09711121 26.35712189 20.09481812 27.20716858 C20.03009974 31.10087013 19.97294975 33.07963787 17.765625 36.390625 C13.33489948 37.86753351 9.49343783 38.10734736 5.12890625 36.296875 C1.88608581 33.68117851 1.89153842 31.71117775 1.328125 27.640625 C0.16311532 21.39720294 -1.02163206 17.22684275 -6.234375 13.390625 C-15.63586323 7.93169635 -26.92760926 6.78243733 -37.5 9.109375 C-48.04368691 12.39434278 -53.79052653 16.77702026 -59.234375 26.390625 C-64.42417452 36.34615482 -64.24195789 46.76991539 -61.33203125 57.39453125 C-58.18498897 65.98450074 -52.52927637 72.49998241 -44.234375 76.390625 C-30.53072745 81.14532065 -16.47379091 80.10547653 -3.38525391 73.82250977 C0.2370937 71.98632108 3.74351742 70.17393931 6.97265625 67.69921875 C9.66251509 65.73603201 11.52989847 65.91874821 14.765625 66.390625 C18.48506415 69.40638647 19.63229231 71.39062985 20.265625 76.140625 C20.21177766 78.62657733 20.04814002 79.98233274 18.625 82.0390625 C5.41968303 94.1546203 -14.85933059 97.82175163 -32.1171875 97.66796875 C-43.01378178 97.1447448 -53.45526968 93.93936302 -62.234375 87.390625 C-62.93949219 86.87757813 -63.64460938 86.36453125 -64.37109375 85.8359375 C-74.58053067 77.70728106 -80.56866165 65.19776065 -82.234375 52.390625 C-83.13607117 35.15435589 -80.54940963 19.89533252 -69.234375 6.140625 C-51.0537309 -12.83446742 -20.89765887 -15.6403862 0 0 Z " fill="#FEFEFE" transform="translate(422.234375,282.609375)"/>
</svg>
